<svg xmlns="http://www.w3.org/2000/svg" width="24" height="24" viewBox="0 0 24 24" version="1.1" id="svg4">
  <defs id="defs8" />
  <path d="M 12 0 C 5.376999 0 1.1842379e-15 5.3770001 0 12 C 0 18.623 5.376999 24 12 24 C 18.623 24 24 18.623 24 12 C 24 5.3770001 18.623 0 12 0 z M 12 2 C 17.519 2 22 6.4809998 22 12 C 22 17.519 17.519 22 12 22 C 6.4809998 22 2 17.519 2 12 C 2 6.4809998 6.4809998 2 12 2 z " id="path2-8" />
  <path inkscape:connector-curvature="0" d="m 10,8 h 9 v 2 h -9 v 3 L 5,9 10,5 Z" id="path818" />
  <path inkscape:connector-curvature="0" d="M 14,14 H 5 v 2 h 9 v 3 l 5,-4 -5,-4 z" id="path816" />
</svg>
