<?xml version="1.0" encoding="UTF-8"?>
<svg xmlns="http://www.w3.org/2000/svg" xmlns:xlink="http://www.w3.org/1999/xlink" width="24pt" height="24pt" viewBox="0 0 24 24" version="1.1">
<g id="surface1">
<path style=" stroke:none;fill-rule:nonzero;fill:rgb(0%,0%,0%);fill-opacity:1;" d="M 3.355469 0 L 1.421875 6.011719 L 8 6.011719 L 6.296875 3.808594 C 7.917969 2.679688 9.878906 2.011719 12 2.011719 C 17.519531 2.011719 22 6.492188 22 12.011719 C 22 17.53125 17.519531 22.011719 12 22.011719 C 6.480469 22.011719 2 17.53125 2 12.011719 C 2 10.964844 2.160156 9.957031 2.457031 9.011719 L 0.378906 9.011719 C 0.132812 9.972656 0 10.976562 0 12.011719 C 0 18.632812 5.378906 24 12 24 C 18.621094 24 24 18.632812 24 12.011719 C 24 5.390625 18.621094 0.0117188 12 0.0117188 C 9.417969 0.0117188 7.03125 0.832031 5.074219 2.222656 Z M 11.191406 6 C 10.902344 6.816406 10.816406 7.347656 10.183594 7.609375 C 9.546875 7.875 9.117188 7.558594 8.328125 7.1875 L 7.1875 8.328125 C 7.558594 9.113281 7.875 9.542969 7.609375 10.183594 C 7.347656 10.816406 6.816406 10.902344 6 11.191406 L 6 12.808594 C 6.816406 13.097656 7.347656 13.179688 7.609375 13.816406 C 7.875 14.457031 7.550781 14.902344 7.1875 15.671875 L 8.328125 16.8125 C 9.109375 16.441406 9.542969 16.125 10.183594 16.390625 C 10.816406 16.652344 10.898438 17.179688 11.191406 18 L 12.808594 18 C 13.097656 17.183594 13.183594 16.652344 13.824219 16.386719 C 14.453125 16.125 14.882812 16.4375 15.671875 16.8125 L 16.816406 15.671875 C 16.441406 14.890625 16.125 14.453125 16.390625 13.816406 C 16.652344 13.183594 17.183594 13.097656 18 12.808594 L 18 11.191406 C 17.175781 10.898438 16.652344 10.816406 16.390625 10.183594 C 16.125 9.546875 16.441406 9.113281 16.816406 8.328125 L 15.671875 7.1875 C 14.890625 7.554688 14.457031 7.875 13.820312 7.609375 C 13.183594 7.347656 13.101562 6.820312 12.808594 6 Z M 12.035156 9.972656 C 13.175781 9.972656 14.097656 10.894531 14.097656 12.035156 C 14.097656 13.175781 13.175781 14.097656 12.035156 14.097656 C 10.894531 14.097656 9.972656 13.175781 9.972656 12.035156 C 9.972656 10.894531 10.894531 9.972656 12.035156 9.972656 Z M 12.035156 9.972656 "/>
</g>
</svg>
