<svg xmlns="http://www.w3.org/2000/svg" width="24" height="24" viewBox="0 0 24 24"><path d="M16 12l8 6.041-3.448.552 2.16 4.368-2.03 1.039-2.17-4.449-2.512 2.273v-9.824zm4-1c0 .484-.049.957-.123 1.421l1.762 1.331c.227-.881.361-1.8.361-2.752 0-3.742-1.873-7.043-4.728-9.03l-1.201 1.601c2.37 1.623 3.929 4.347 3.929 7.429zm-7-11h-4v10h4v-10zm1 19.475c-.94.334-1.947.525-3 .525-4.963 0-9-4.038-9-9 0-3.105 1.581-5.848 3.979-7.466l-1.232-1.578c-2.866 1.985-4.747 5.294-4.747 9.044 0 6.075 4.926 11 11 11 1.041 0 2.045-.154 3-.425v-2.1z"/></svg>