<svg xmlns="http://www.w3.org/2000/svg" width="24" height="24" viewBox="0 0 24 24"><path d="M13.747 12.795l9.253 4.58-3.453 1.32 3.145 4.039-1.547 1.266-3.204-4.104-2.121 3.009-2.073-10.11zm-.747-2.795c0-1.104-.895-2-2-2s-2 .896-2 2 .895 2 2 2 2-.896 2-2zm-2-6c-3.314 0-6 2.686-6 6s2.686 6 6 6c.458 0 .902-.056 1.331-.153l-.403-1.966c-.299.071-.607.119-.928.119-2.206 0-4-1.794-4-4s1.794-4 4-4 4 1.794 4 4c0 .384-.071.747-.173 1.099l1.824.902c.222-.626.349-1.298.349-2.001 0-3.314-2.686-6-6-6zm1.733 13.806c-.559.124-1.137.194-1.733.194-4.411 0-8-3.589-8-8s3.589-8 8-8 8 3.589 8 8c0 1.021-.199 1.994-.549 2.892l1.803.892c.478-1.168.746-2.444.746-3.784 0-5.523-4.477-10-10-10s-10 4.477-10 10 4.477 10 10 10c.733 0 1.446-.084 2.135-.234l-.402-1.96z"/></svg>